<svg xmlns="http://www.w3.org/2000/svg" width="136.195" height="24.23" viewBox="0 0 136.195 24.23">
  <defs>
    <style>
      .cls-1 {
        fill: #96856e;
      }

      .cls-2 {
        fill: #190d00;
      }
    </style>
  </defs>
  <g id="CI" transform="translate(-7.659 -112.05)">
    <path id="패스_10" data-name="패스 10" class="cls-1" d="M14.842,136.11v-6.647a8.714,8.714,0,0,1-4.644-2.148,8.109,8.109,0,0,1-2.507-6.786,8.746,8.746,0,0,1,2.981-5.852,10.856,10.856,0,0,1,7.633-2.627,12.276,12.276,0,0,1,12.436,12.081,11.842,11.842,0,0,1-3.5,8.4,13.366,13.366,0,0,1-9.755,3.75h0C16.316,136.28,15.06,136.125,14.842,136.11Zm3.068-18.24c3.719.158,6.038,2.439,5.933,5.835-.094,3.058-2.385,5.322-5.838,5.769-.356.047-.711.077-1.063.093v4.684c.192.006.385.01.569.01a11.286,11.286,0,0,0,8.237-3.127,9.873,9.873,0,0,0,2.918-7,10.227,10.227,0,0,0-10.361-10.065H18.14c-5.383.083-8.1,3.49-8.354,6.622a6.134,6.134,0,0,0,1.858,5.142,6.434,6.434,0,0,0,3.2,1.557v-9.461A26.083,26.083,0,0,1,17.91,117.869Zm-.966,2.018v7.632c.258-.012.522-.037.783-.069,1.891-.246,3.939-1.374,4.014-3.805.07-2.27-1.359-3.632-3.918-3.734C17.518,119.9,17.245,119.892,16.945,119.888Z" transform="translate(0 0)"/>
    <g id="그룹_4" data-name="그룹 4" transform="translate(39.26 117.25)">
      <path id="패스_14" data-name="패스 14" class="cls-2" d="M292.442,129.775c-1.419-.922-1.7-1.364-1.664-2.19a2.176,2.176,0,0,1,2.016-1.887,3.779,3.779,0,0,1,3.21,1.026v-1.479a7.846,7.846,0,0,0-4.448-.244,3.939,3.939,0,0,0-2.822,2.2,3.056,3.056,0,0,0,.388,3.016,19.711,19.711,0,0,0,3.548,2.676c1,.648,1.964,1.379,1.915,2.756-.036,1.067-1.1,2.274-3.194,2.008a4.5,4.5,0,0,1-3.028-1.783v1.785c1.645,1.038,4.685,1.556,6.8.125a3.549,3.549,0,0,0,1.439-4.512C296.011,131.944,293.862,130.7,292.442,129.775Z" transform="translate(-205.385 -124.789)"/>
      <path id="패스_15" data-name="패스 15" class="cls-2" d="M117.789,125.241v.15c.822.136.665.886.491,1.306l-4.761,12h1.2l1.931-5.007h5.131l1.6,4.173a1.225,1.225,0,0,0,1.281.836h1.629l-5.3-13.461Zm-.859,7.657,2.279-5.968,2.27,5.968Z" transform="translate(-101.909 -125.056)"/>
      <path id="패스_16" data-name="패스 16" class="cls-2" d="M191.362,125.241v.15c.822.136.664.886.488,1.306l-4.76,12h1.2l1.933-5.007h5.128l1.6,4.173a1.227,1.227,0,0,0,1.281.836h1.63l-5.3-13.461ZM190.5,132.9l2.277-5.968,2.274,5.968Z" transform="translate(-145.45 -125.056)"/>
      <path id="패스_17" data-name="패스 17" class="cls-2" d="M268.032,125.391a1.143,1.143,0,0,1,.9,1.238V138.7h2.418V125.241h-3.317Z" transform="translate(-193.353 -125.056)"/>
      <path id="패스_19" data-name="패스 19" class="cls-2" d="M321.735,132.041h5.247v-.859h-5.247v-5.145h5.473v-.8h-8.791v.15a1.146,1.146,0,0,1,.9,1.238V138.7l8.449,0v-.858h-6.031Z" transform="translate(-223.172 -125.056)"/>
      <path id="패스_20" data-name="패스 20" class="cls-2" d="M232.1,125.241h-6.09v.15a1.128,1.128,0,0,1,.9,1.155V138.7h4.591c6.4,0,7.772-4.372,7.772-6.943C239.266,127.864,236,125.241,232.1,125.241Zm-.525,12.691h-2.246v-11.9h1.961c3.554,0,5.62,2.227,5.62,5.936S234.295,137.932,231.57,137.932Z" transform="translate(-168.481 -125.056)"/>
      <path id="패스_21" data-name="패스 21" class="cls-2" d="M162.769,128.728c0-1.65-1.183-3.482-4.086-3.482h-5.911v.148a1.14,1.14,0,0,1,.9,1.212v12.1h2.418v-6.34h1.234l3.318,5.5a1.8,1.8,0,0,0,1.549.844h1.818l-4.159-6.591A3.642,3.642,0,0,0,162.769,128.728Zm-5.2,2.881H156.09v-5.565h1.565a2.619,2.619,0,0,1,2.795,2.663A2.66,2.66,0,0,1,157.569,131.609Z" transform="translate(-125.14 -125.059)"/>
      <path id="패스_22" data-name="패스 22" class="cls-2" d="M90.691,125.241H85.077v.15a1.144,1.144,0,0,1,.9,1.238V138.7H88.4v-6.309h1.758c2.257,0,4.624-1.33,4.624-3.674C94.779,127.068,93.593,125.241,90.691,125.241ZM89.578,131.6H88.4v-5.564h1.266a2.62,2.62,0,0,1,2.8,2.663A2.66,2.66,0,0,1,89.578,131.6Z" transform="translate(-85.077 -125.056)"/>
    </g>
  </g>
</svg>
